<?xml version="1.0" encoding="UTF-8"?>
<svg id="_레이어_2" data-name="레이어 2" xmlns="http://www.w3.org/2000/svg" xmlns:xlink="http://www.w3.org/1999/xlink" viewBox="0 0 502.34 468.8">
  <defs>
    <style>
      .cls-1 {
        fill: url(#_무제_그라디언트_3);
        stroke-width: 0px;
      }
    </style>
    <linearGradient id="_무제_그라디언트_3" data-name="무제 그라디언트 3" x1="22.51" y1="85.07" x2="416.32" y2="401.71" gradientUnits="userSpaceOnUse">
      <stop offset="0" stop-color="#29abe2"/>
      <stop offset="1" stop-color="#39b54a"/>
    </linearGradient>
  </defs>
  <g id="_레이어_1-2" data-name="레이어 1">
    <path class="cls-1" d="m369.35,153.3v188.81c0,38.6,31.29,69.89,69.89,69.89h19.16c15.68,0,28.4,12.72,28.4,28.4h0c0,15.68-12.72,28.4-28.4,28.4H106.79c-58.98,0-106.79-47.81-106.79-106.79V92.62C0,41.47,41.47,0,92.62,0h137.78c15.68,0,28.4,12.71,28.4,28.4,0,7.84-3.18,14.94-8.32,20.08-5.14,5.14-12.24,8.32-20.08,8.32h-112.17c-28.18,0-51.03,22.85-51.03,51.03v107.92c0,2.79,2.26,5.05,5.05,5.05h165.59c14.89,0,26.96,12.07,26.96,26.96v2.88c0,14.89-12.07,26.96-26.96,26.96H72.25c-2.79,0-5.05,2.26-5.05,5.05v54.83c0,41.16,33.37,74.52,74.52,74.52h179.71c-12.72-19.55-20.11-42.89-20.11-67.95v-191.67l-100.82,33.81c-13.87,4.65-28.89-2.82-33.54-16.69h0c-4.66-13.88,2.82-28.9,16.69-33.55l117.66-39.46v-62.47c0-9.39,3.81-17.89,9.96-24.05C317.44,3.82,325.94,0,335.33,0c18.79,0,34.02,15.23,34.02,34.01v63.39l114.91,38.54c13.87,4.65,21.35,19.67,16.7,33.54h0c-4.65,13.87-19.67,21.35-33.54,16.7l-98.07-32.89Z"/>
  </g>
</svg>